<mxfile host="app.diagrams.net" modified="2023-04-06T10:01:53.239Z" agent="Mozilla/5.0 (Windows NT 10.0; Win64; x64) AppleWebKit/537.36 (KHTML, like Gecko) Chrome/111.0.0.0 Safari/537.36 Edg/111.0.1661.62" version="21.1.4" etag="4jHAk_7YqB3Er2_hYDDz" type="github">
  <diagram name="第 1 页" id="OQPMZTB9KyYM8CeVsmSJ">
    <mxGraphModel>
      <root>
        <mxCell id="0" />
        <mxCell id="1" parent="0" />
      </root>
    </mxGraphModel>
  </diagram>
</mxfile>
